<?xml version="1.0" encoding="UTF-8"?>
<svg id="Capa_1" data-name="Capa 1" xmlns="http://www.w3.org/2000/svg" viewBox="0 0 200 200">
  <defs>
    <style>
      .cls-1 {
        fill: #f7bd21;
      }
    </style>
  </defs>
  <path class="cls-1" d="M149.62,66.79c-2.49-6.02-6.06-11.3-10.69-15.82-4.64-4.52-10.23-8.05-16.77-10.6-6.55-2.55-13.93-3.82-22.16-3.82s-15.47,1.28-22.07,3.82c-6.6,2.55-12.22,6.08-16.86,10.6s-8.2,9.79-10.69,15.82c-2.49,6.03-3.74,12.51-3.74,19.46v4.17c0,6.72,1.19,13.03,3.56,18.94,2.37,5.91,5.85,11.12,10.43,15.64,4.58,4.52,10.17,8.05,16.77,10.6,2.15.83,4.43,1.47,6.78,2.03v25.8h31.63v-25.8c2.35-.56,4.63-1.2,6.78-2.03,6.6-2.55,12.19-6.08,16.77-10.6,4.58-4.52,8.05-9.73,10.43-15.64,2.37-5.91,3.56-12.22,3.56-18.94v-4.17c0-6.95-1.25-13.44-3.74-19.46ZM81.49,58.11c5.09-3.02,11.29-4.54,18.57-4.54s13.47,1.52,18.57,4.54c5.09,3.03,8.97,7.13,11.61,12.31,1.73,3.39,2.83,7.19,3.43,11.3h-11.05c-2.75-9.88-11.81-17.16-22.56-17.16s-19.81,7.28-22.56,17.16h-11.05c.6-4.11,1.7-7.9,3.43-11.3,2.64-5.18,6.51-9.28,11.61-12.31ZM108.73,87.99c0,4.78-3.89,8.67-8.67,8.67s-8.67-3.89-8.67-8.67,3.89-8.67,8.67-8.67,8.67,3.89,8.67,8.67ZM119.05,118.11c-5.01,2.87-11.33,4.3-18.98,4.3s-13.75-1.44-18.85-4.3c-5.1-2.87-8.92-6.89-11.47-12.07-1.12-2.28-1.95-4.71-2.58-7.25h12.12c3.91,7.5,11.75,12.64,20.78,12.64s16.87-5.14,20.78-12.64h12.12c-.63,2.54-1.46,4.97-2.58,7.25-2.55,5.18-6.33,9.2-11.33,12.07Z"/>
</svg>